<?xml version="1.0" encoding="UTF-8"?>
<svg version="1.1" xmlns="http://www.w3.org/2000/svg" width="1251" height="555">
<path d="M0 0 C412.83 0 825.66 0 1251 0 C1251 183.15 1251 366.3 1251 555 C838.17 555 425.34 555 0 555 C0 371.85 0 188.7 0 0 Z " fill="#FEFEFE" transform="translate(0,0)"/>
<path d="M0 0 C1.15242187 0.00750778 2.30484375 0.01501556 3.4921875 0.02275085 C4.79542969 0.03723015 4.79542969 0.03723015 6.125 0.05200195 C6.14812269 11.24773439 6.16591471 22.4434612 6.17681217 33.63921261 C6.18204116 38.8372831 6.1891391 44.03533732 6.20043945 49.23339844 C6.21126776 54.24542464 6.21727671 59.25743513 6.21987724 64.26947212 C6.22173159 66.18612478 6.2253524 68.10277652 6.23073006 70.01942253 C6.23793975 72.69428268 6.23899097 75.36907709 6.23852539 78.04394531 C6.24212067 78.84451355 6.24571594 79.64508179 6.24942017 80.46990967 C6.23905216 85.93794979 6.23905216 85.93794979 5.125 87.05200195 C3.25228759 87.31156461 1.37877983 87.56619336 -0.49755859 87.7980957 C-26.91696379 91.22410622 -52.10786182 102.43338916 -72.875 119.05200195 C-73.46361816 119.52250977 -74.05223633 119.99301758 -74.65869141 120.4777832 C-105.32324739 145.2909494 -125.86720982 181.12523418 -130.42578125 220.48950195 C-134.53389654 264.11357818 -124.02877725 305.20168253 -95.98046875 339.4387207 C-69.04972871 371.29762073 -34.5493951 387.2729361 6.125 394.05200195 C6.125 422.76200195 6.125 451.47200195 6.125 481.05200195 C-11.55203622 479.87353287 -11.55203622 479.87353287 -18.0625 478.80200195 C-18.85164795 478.67269287 -19.6407959 478.54338379 -20.45385742 478.41015625 C-65.13428834 470.74826202 -106.73780958 449.88294103 -139.875 419.05200195 C-141.26660821 417.83880505 -142.66227188 416.63023981 -144.0625 415.42700195 C-186.8237173 378.07533624 -214.20228154 317.97671773 -218.70214844 261.91674805 C-222.45341965 199.745256 -206.2204194 137.33468496 -165.875 89.05200195 C-165.41013184 88.48562012 -164.94526367 87.91923828 -164.46630859 87.33569336 C-153.51763266 74.00572736 -141.57940413 61.5710581 -127.875 51.05200195 C-126.74430081 50.14636446 -125.6141243 49.24007413 -124.484375 48.33325195 C-93.5230932 23.88498001 -57.27945759 9.55063907 -18.875 2.05200195 C-17.87726563 1.8504248 -16.87953125 1.64884766 -15.8515625 1.44116211 C-10.51094419 0.44154835 -5.43966674 -0.0461834 0 0 Z " fill="#D74218" transform="translate(236.875,44.947998046875)"/>
<path d="M0 0 C47.0131545 3.6163965 91.09685242 21.72204482 128 51 C128.54398438 51.42684082 129.08796875 51.85368164 129.6484375 52.29345703 C144.59542049 64.11254215 158.60031476 77.93011717 169.80566406 93.36132812 C171.00233421 95.00320262 172.22858707 96.61916788 173.4609375 98.234375 C204.01851 138.9014914 219.19340651 189.26495837 219.25 239.8125 C219.25133942 240.52766785 219.25267883 241.24283569 219.25405884 241.97967529 C219.24875031 255.16128865 218.18551949 267.98835361 216 281 C215.88785156 281.70141113 215.77570313 282.40282227 215.66015625 283.12548828 C206.37593876 340.0772854 173.65503414 394.75646775 128 430 C127.1968335 430.62575928 127.1968335 430.62575928 126.37744141 431.26416016 C95.27168849 455.35438315 60.01856131 470.02034647 21.75 478.375 C21.04931396 478.5306543 20.34862793 478.68630859 19.62670898 478.84667969 C13.02318763 480.20164568 6.88164187 480.47064293 0 481 C0 451.96 0 422.92 0 393 C9.9 391.02 9.9 391.02 20 389 C23.72990861 387.84109889 27.17468475 386.7199265 30.75 385.25 C32.04647461 384.73457642 32.04647461 384.73457642 33.36914062 384.20874023 C72.83707472 368.22131416 103.35023043 338.87084463 120.28588867 299.73022461 C127.63955881 281.96424723 131.18744694 263.43161313 131.18530273 244.25170898 C131.18746313 242.09923725 131.20558363 239.94730147 131.22460938 237.79492188 C131.28067704 224.48781489 130.20860378 211.43431014 126.375 198.625 C126.11702637 197.74706787 125.85905273 196.86913574 125.59326172 195.96459961 C113.5104462 156.39070561 86.29925314 123.52227479 49.921875 104 C44.09432984 100.97404861 38.10639336 98.41432828 32 96 C31.12601562 95.63261719 30.25203125 95.26523438 29.3515625 94.88671875 C21.11857585 91.60619022 12.47037197 90.07658619 3.79663086 88.41723633 C2 88 2 88 0 87 C0 58.29 0 29.58 0 0 Z " fill="#757371" transform="translate(282,45)"/>
<path d="M0 0 C7.92 0 15.84 0 24 0 C24.11336088 17.14330451 24.2052573 34.28628348 24.25906086 51.42986012 C24.28471931 59.39193562 24.31962953 67.35375979 24.37719727 75.31567383 C24.42741496 82.26441868 24.45938052 89.2129813 24.47044247 96.16190261 C24.47689726 99.83312337 24.49180038 103.50382335 24.52865028 107.17487526 C24.75839406 130.99953698 23.82548588 154.50649468 6.34375 172.6875 C5.5703125 173.450625 4.796875 174.21375 4 175 C3.2884375 175.721875 2.576875 176.44375 1.84375 177.1875 C-3.77219943 182.55927771 -9.91243779 185.89176741 -17 189 C-17.78632812 189.3609375 -18.57265625 189.721875 -19.3828125 190.09375 C-22.74673385 191.25857053 -26.10645041 191.71938304 -29.625 192.125 C-30.33648193 192.2077417 -31.04796387 192.2904834 -31.78100586 192.37573242 C-50.43864602 194.42725055 -68.46924081 191.30400908 -83.4296875 179.3828125 C-97.51789525 167.3661472 -105.57877746 151.28887743 -108 133 C-109.08799553 113.70494751 -107.18865148 95.41553427 -94.13842773 80.15673828 C-83.17058051 68.05681328 -69.88322077 59.17630207 -53.3894043 57.77880859 C-50.71407535 57.66145865 -48.05287024 57.62021937 -45.375 57.625 C-43.94474487 57.62741699 -43.94474487 57.62741699 -42.4855957 57.62988281 C-30.14553131 57.84098329 -20.33535003 60.96206665 -9 66 C-9 74.25 -9 82.5 -9 91 C-12.42590598 89.62963761 -15.4144668 88.28587986 -18.625 86.5625 C-30.5220196 80.64027227 -43.37520912 78.70459321 -56.3125 82.5625 C-66.50284727 86.49345385 -73.74784635 92.37570781 -79 102 C-85.46323265 116.68020831 -85.6728388 130.89480793 -80 146 C-74.83780821 155.89642986 -66.85441116 163.48442208 -56.359375 167.30859375 C-46.28228056 170.26164957 -34.27606456 170.57549544 -24.52734375 166.3828125 C-12.40998537 159.75291317 -6.22463496 149.89055283 -2 137 C-1.15835912 133.40866166 -0.86632652 130.07273957 -0.84178162 126.38749695 C-0.8319928 125.26995529 -0.82220398 124.15241364 -0.81211853 123.00100708 C-0.80636307 121.78468597 -0.8006076 120.56836487 -0.79467773 119.31518555 C-0.78477814 118.0269841 -0.77487854 116.73878265 -0.76467896 115.4115448 C-0.73770357 111.88717956 -0.71665427 108.36280103 -0.69667697 104.83839011 C-0.67477184 101.15214872 -0.64740534 97.46594796 -0.62062073 93.77973938 C-0.57075496 86.80298259 -0.5257935 79.82620318 -0.48259836 72.84940225 C-0.43317364 64.90503339 -0.37827496 56.9607053 -0.32291877 49.0163759 C-0.20919264 32.6776213 -0.10252745 16.33882875 0 0 Z " fill="#1C191D" transform="translate(908,258)"/>
<path d="M0 0 C2.55765676 2.24132516 4.99386715 4.55667767 7.40234375 6.95703125 C8.05332031 7.58480469 8.70429688 8.21257812 9.375 8.859375 C19.62183887 19.51158332 23.007654 33.56285502 22.77734375 47.9140625 C21.77526926 62.6195056 14.49663197 75.87366472 3.90625 85.890625 C-8.84258147 96.41189153 -23.22150394 100.3077495 -39.46875 99.18457031 C-54.09769348 97.6210181 -67.21348209 89.02163016 -76.3828125 77.765625 C-83.73091674 67.26027904 -86.77632544 57.42183333 -86.84765625 44.76953125 C-86.86828125 43.87427734 -86.88890625 42.97902344 -86.91015625 42.05664062 C-86.99109488 28.04414017 -81.40750799 16.25761436 -71.84375 6.20703125 C-71.10253906 5.46453125 -70.36132812 4.72203125 -69.59765625 3.95703125 C-69.03175781 3.37953125 -68.46585938 2.80203125 -67.8828125 2.20703125 C-50.17061411 -14.42251443 -18.89287344 -14.85860573 0 0 Z " fill="#D74218" transform="translate(222.59765625,241.04296875)"/>
<path d="M0 0 C8.1492291 6.01152928 14.50890413 13.51974643 20 22 C20.46535156 22.70640625 20.93070313 23.4128125 21.41015625 24.140625 C22.5625 26 22.5625 26 24 29 C22.71847272 32.84458185 21.55679476 33.05919723 18.0234375 34.8984375 C16.97244873 35.45321777 15.92145996 36.00799805 14.83862305 36.57958984 C13.69562744 37.1720752 12.55263184 37.76456055 11.375 38.375 C8.97015794 39.64112423 6.5691595 40.9144678 4.16796875 42.1875 C3.559496 42.50899017 2.95102325 42.83048035 2.32411194 43.16171265 C-3.28126195 46.12986126 -8.80454494 49.23076479 -14.3125 52.375 C-24.5715444 58.21794164 -34.89765846 63.93318451 -45.2434082 69.62060547 C-45.83620071 69.94679871 -46.42899323 70.27299194 -47.03974915 70.60906982 C-48.72074809 71.53314719 -50.40331445 72.4543715 -52.0859375 73.37548828 C-54.4796243 74.7099045 -56.81868552 76.0987642 -59.15625 77.52734375 C-60.0946875 78.01332031 -61.033125 78.49929688 -62 79 C-65.4144987 77.86183377 -65.54699469 77.54356988 -67.078125 74.5078125 C-67.43390625 73.80269531 -67.7896875 73.09757812 -68.15625 72.37109375 C-68.69765625 71.25927734 -68.69765625 71.25927734 -69.25 70.125 C-69.62640625 69.39152344 -70.0028125 68.65804687 -70.390625 67.90234375 C-70.74125 67.19464844 -71.091875 66.48695313 -71.453125 65.7578125 C-71.77442383 65.1095752 -72.09572266 64.46133789 -72.42675781 63.79345703 C-73 62 -73 62 -72 59 C-70.04833984 57.67236328 -70.04833984 57.67236328 -67.4609375 56.3203125 C-66.01823486 55.55497192 -66.01823486 55.55497192 -64.54638672 54.77416992 C-63.4998291 54.22994385 -62.45327148 53.68571777 -61.375 53.125 C-59.17609873 51.95888599 -56.97820703 50.79086659 -54.78125 49.62109375 C-53.65460937 49.02280762 -52.52796875 48.42452148 -51.3671875 47.80810547 C-43.3399775 43.49767063 -35.44407629 38.94893055 -27.52929688 34.43652344 C-25.18668572 33.10602884 -22.83746293 31.7884143 -20.484375 30.4765625 C-19.49074951 29.91932495 -19.49074951 29.91932495 -18.47705078 29.35083008 C-16.77011573 28.39385739 -15.06094104 27.44088242 -13.3515625 26.48828125 C-10.89252055 25.21555557 -10.89252055 25.21555557 -10 23 C-10.58523438 22.72027344 -11.17046875 22.44054687 -11.7734375 22.15234375 C-13.85044667 21.07740041 -15.69642344 19.87967676 -17.625 18.5625 C-27.19748761 12.61488821 -37.72138455 11.59684484 -48.765625 13.46875 C-60.08378161 16.45845175 -69.13141944 23.17549554 -75.3125 33.109375 C-81.58236704 45.0036816 -81.71221246 59.55719954 -79.34765625 72.59765625 C-78.44966617 75.27621035 -77.41251078 77.55639827 -76 80 C-75.27103516 81.29744141 -75.27103516 81.29744141 -74.52734375 82.62109375 C-69.01137983 91.39708363 -61.00618308 97.12793028 -51.17578125 100.33984375 C-39.20944677 102.82731057 -26.45461219 101.65924189 -15.66796875 95.71484375 C-6.39369773 89.34875714 -1.80292377 80.29436142 2 70 C2.32097656 69.16082031 2.64195312 68.32164062 2.97265625 67.45703125 C3.66279212 65.64341837 4.33403947 63.82262881 5 62 C13.16240568 61.66146705 20.95072024 62.70098079 29 64 C28.06324798 73.45140847 26.25036908 81.4873893 22 90 C21.57976562 90.85207031 21.15953125 91.70414062 20.7265625 92.58203125 C12.85773554 107.02337552 -1.17501001 117.58345741 -16.83203125 122.2578125 C-37.20772635 127.03140321 -56.94857899 126.03300783 -75.13378906 115.22265625 C-80.35804091 111.79996483 -84.67956001 107.47308227 -89 103 C-89.66386719 102.37867188 -90.32773437 101.75734375 -91.01171875 101.1171875 C-100.17995418 91.9283493 -105.33322109 77.72678013 -106 65 C-106.04092773 64.32356445 -106.08185547 63.64712891 -106.12402344 62.95019531 C-107.24251807 42.19796024 -101.85832198 25.31815329 -87.9375 9.68359375 C-65.79836252 -13.68110313 -26.96280863 -17.64951177 0 0 Z " fill="#1B191C" transform="translate(756,326)"/>
<path d="M0 0 C7.3602505 5.90244461 13.22025945 12.86449765 18.34521484 20.77929688 C18.81056641 21.48570312 19.27591797 22.19210937 19.75537109 22.91992188 C20.90771484 24.77929688 20.90771484 24.77929688 22.34521484 27.77929688 C21.06368756 31.62387873 19.9020096 31.8384941 16.36865234 33.67773438 C15.31766357 34.23251465 14.2666748 34.78729492 13.18383789 35.35888672 C12.04084229 35.95137207 10.89784668 36.54385742 9.72021484 37.15429688 C7.31537278 38.4204211 4.91437435 39.69376468 2.51318359 40.96679688 C1.90471085 41.28828705 1.2962381 41.60977722 0.66932678 41.94100952 C-4.93604711 44.90915813 -10.4593301 48.01006166 -15.96728516 51.15429688 C-26.22632956 56.99723852 -36.55244362 62.71248139 -46.89819336 68.39990234 C-47.49098587 68.72609558 -48.08377838 69.05228882 -48.6945343 69.3883667 C-50.37553325 70.31244407 -52.05809961 71.23366837 -53.74072266 72.15478516 C-56.13440945 73.48920137 -58.47347067 74.87806108 -60.81103516 76.30664062 C-61.74947266 76.79261719 -62.68791016 77.27859375 -63.65478516 77.77929688 C-67.06928385 76.64113064 -67.20177985 76.32286675 -68.73291016 73.28710938 C-69.08869141 72.58199219 -69.44447266 71.876875 -69.81103516 71.15039062 C-70.35244141 70.03857422 -70.35244141 70.03857422 -70.90478516 68.90429688 C-71.28119141 68.17082031 -71.65759766 67.43734375 -72.04541016 66.68164062 C-72.39603516 65.97394531 -72.74666016 65.26625 -73.10791016 64.53710938 C-73.42920898 63.88887207 -73.75050781 63.24063477 -74.08154297 62.57275391 C-74.65478516 60.77929688 -74.65478516 60.77929688 -73.65478516 57.77929688 C-71.703125 56.45166016 -71.703125 56.45166016 -69.11572266 55.09960938 C-67.67302002 54.3342688 -67.67302002 54.3342688 -66.20117188 53.5534668 C-65.15461426 53.00924072 -64.10805664 52.46501465 -63.02978516 51.90429688 C-60.83088389 50.73818287 -58.63299218 49.57016346 -56.43603516 48.40039062 C-55.30939453 47.80210449 -54.18275391 47.20381836 -53.02197266 46.58740234 C-44.99476266 42.27696751 -37.09886145 37.72822743 -29.18408203 33.21582031 C-26.84147087 31.88532571 -24.49224808 30.56771118 -22.13916016 29.25585938 C-21.14553467 28.69862183 -21.14553467 28.69862183 -20.13183594 28.13012695 C-18.42490089 27.17315427 -16.7157262 26.22017929 -15.00634766 25.26757812 C-12.5473057 23.99485244 -12.5473057 23.99485244 -11.65478516 21.77929688 C-12.24001953 21.49957031 -12.82525391 21.21984375 -13.42822266 20.93164062 C-15.50523183 19.85669728 -17.35120859 18.65897363 -19.27978516 17.34179688 C-28.85227277 11.39418509 -39.3761697 10.37614171 -50.42041016 12.24804688 C-60.8864735 15.01266738 -69.44123824 20.92844449 -75.65478516 29.77929688 C-82.58539485 42.34749207 -84.05890958 57.61358111 -80.74853516 71.61132812 C-78.55912716 77.07783077 -75.56784893 81.74707463 -71.79150391 86.25585938 C-70.65478516 87.77929688 -70.65478516 87.77929688 -70.65478516 89.77929688 C-69.81367187 90.18148437 -69.81367187 90.18148437 -68.95556641 90.59179688 C-65.63789831 92.3041417 -62.53416804 94.33930776 -59.38525391 96.34179688 C-49.33974694 101.63041857 -36.32719318 101.16057217 -25.59228516 98.15429688 C-14.988694 94.3644704 -7.88394555 87.39350817 -2.95556641 77.29882812 C-0.55367388 71.894214 1.52626408 66.40694267 3.34521484 60.77929688 C11.50762053 60.44076392 19.29593508 61.48027766 27.34521484 62.77929688 C25.42051262 81.94013845 18.31129945 97.2077858 3.34521484 109.77929688 C-12.69813085 121.3684489 -31.47588278 125.6298848 -51.10400391 123.38476562 C-67.22942269 120.77302068 -79.44172955 113.41682147 -90.65478516 101.77929688 C-91.24517578 101.21984375 -91.83556641 100.66039062 -92.44384766 100.08398438 C-103.13054488 89.1686947 -107.84270538 72.2828473 -108.02978516 57.46679688 C-107.78826902 38.23607427 -102.42293561 21.15505699 -88.50244141 7.39648438 C-64.97106431 -14.23043285 -26.81497158 -19.78088786 0 0 Z " fill="#1B181C" transform="translate(1058.65478515625,327.220703125)"/>
<path d="M0 0 C1.4177429 0.00374108 2.83548843 0.00658286 4.25323486 0.00857544 C7.94225501 0.01612589 11.63111174 0.03569788 15.32006836 0.0579834 C19.10137727 0.07862953 22.88271319 0.08761683 26.6640625 0.09765625 C34.05216563 0.11895412 41.44010138 0.15406344 48.828125 0.1953125 C48.828125 7.7853125 48.828125 15.3753125 48.828125 23.1953125 C46.82468018 23.20989502 44.82123535 23.22447754 42.75708008 23.23950195 C36.13124537 23.28988131 29.50564485 23.35648219 22.88004017 23.43102741 C18.86365078 23.4757193 14.84736254 23.51497785 10.83081055 23.54174805 C6.95323196 23.56779311 3.07604288 23.60820351 -0.80129433 23.65849876 C-2.27917949 23.67515945 -3.75713202 23.68667872 -5.23509789 23.69292641 C-7.30843124 23.70257665 -9.38076996 23.7306442 -11.45385742 23.76293945 C-12.63300217 23.77404251 -13.81214691 23.78514557 -15.02702332 23.79658508 C-19.46282164 24.35898821 -22.05159565 26.07503315 -25.171875 29.1953125 C-25.45269844 31.30280716 -25.45269844 31.30280716 -25.359375 33.6328125 C-25.35292969 34.41527344 -25.34648438 35.19773437 -25.33984375 36.00390625 C-25.24743169 38.37330927 -25.24743169 38.37330927 -24.171875 41.1953125 C-22.37674568 42.30905057 -22.37674568 42.30905057 -20.171875 43.1953125 C-19.03431763 43.75617554 -19.03431763 43.75617554 -17.8737793 44.32836914 C-10.43774287 47.84928674 -2.86185064 50.29723275 5.015625 52.6328125 C36.18234916 62.0867106 36.18234916 62.0867106 43.828125 69.1953125 C44.45074219 69.71738281 45.07335938 70.23945313 45.71484375 70.77734375 C51.76704326 76.1951408 54.60647662 82.12957041 55.20703125 90.23046875 C55.6504559 100.7441143 54.42117777 109.93200791 47.828125 118.5078125 C41.55986472 125.1009934 31.23492979 129.83852885 22.18338013 130.43582153 C20.81512917 130.44155474 19.44680374 130.43644912 18.07861328 130.42236328 C17.32671219 130.42265533 16.5748111 130.42294739 15.80012512 130.42324829 C13.33277555 130.42186302 10.86573385 130.40633998 8.3984375 130.390625 C6.68065557 130.38689201 4.9628715 130.38404639 3.24508667 130.38204956 C-1.26271506 130.37443561 -5.77038667 130.35480645 -10.27813721 130.3326416 C-14.88332357 130.31213485 -19.48853108 130.30303753 -24.09375 130.29296875 C-33.11985786 130.27155833 -42.14583522 130.23639454 -51.171875 130.1953125 C-51.171875 122.6053125 -51.171875 115.0153125 -51.171875 107.1953125 C-47.84863159 107.17343872 -47.84863159 107.17343872 -44.45825195 107.15112305 C-37.13393782 107.10076044 -29.80983591 107.03416242 -22.48573017 106.95959759 C-18.04559968 106.91489166 -13.605561 106.87563607 -9.1652832 106.84887695 C-4.87924139 106.82284611 -0.59355279 106.78244542 3.69227028 106.73212624 C5.32646093 106.71545601 6.96071268 106.70394268 8.59497643 106.69769859 C10.88620304 106.68805898 13.1765257 106.6600029 15.4675293 106.62768555 C16.77102829 106.61658249 18.07452728 106.60547943 19.41752625 106.59403992 C23.03834958 106.17073549 24.92988855 105.35650112 27.828125 103.1953125 C30.39383089 99.77437131 30.26520554 96.34757766 29.828125 92.1953125 C22.72795341 81.6127097 7.20517074 78.76370762 -4.359375 75.0703125 C-38.58307654 64.06080511 -38.58307654 64.06080511 -48.171875 50.1953125 C-52.56448301 41.3511353 -52.58368551 30.58321986 -49.546875 21.3203125 C-45.53361864 11.69968401 -39.24091207 7.24860419 -29.86676025 3.19967651 C-20.33377131 -0.35319871 -10.02629464 -0.07895381 0 0 Z " fill="#1B181C" transform="translate(1152.171875,317.8046875)"/>
<path d="M0 0 C2.536875 0.020625 5.07375 0.04125 7.6875 0.0625 C7.6875 7.3225 7.6875 14.5825 7.6875 22.0625 C5.41875 22.289375 3.15 22.51625 0.8125 22.75 C-8.83805428 23.94613387 -16.56172204 26.8886152 -22.78125 34.70703125 C-31.29262979 47.79979149 -31.61157571 62.66795713 -31.7265625 77.765625 C-31.74531763 79.3403215 -31.7648941 80.91500841 -31.7852478 82.48968506 C-31.83611695 86.59285777 -31.87598158 90.6960629 -31.91339111 94.79937744 C-31.95371777 99.00304891 -32.00467784 103.20659081 -32.0546875 107.41015625 C-32.15090986 115.62752126 -32.23449725 123.84494183 -32.3125 132.0625 C-40.2325 132.0625 -48.1525 132.0625 -56.3125 132.0625 C-56.3125 89.1625 -56.3125 46.2625 -56.3125 2.0625 C-48.3925 2.0625 -40.4725 2.0625 -32.3125 2.0625 C-31.9825 6.0225 -31.6525 9.9825 -31.3125 14.0625 C-29.9203125 12.515625 -29.9203125 12.515625 -28.5 10.9375 C-20.23484128 2.65550796 -11.4124132 -0.13155184 0 0 Z " fill="#1D1A1E" transform="translate(634.3125,315.9375)"/>
<path d="M0 0 C4.15322117 3.17021024 7.45975112 6.88984447 10.640625 11.015625 C9.42602803 14.65941592 8.3407579 15.18933001 5.21484375 17.31640625 C4.28325439 17.95658691 3.35166504 18.59676758 2.3918457 19.25634766 C1.38081787 19.94003418 0.36979004 20.6237207 -0.671875 21.328125 C-2.78930306 22.77959705 -4.90648634 24.23142623 -7.0234375 25.68359375 C-8.09110352 26.41239746 -9.15876953 27.14120117 -10.25878906 27.89208984 C-14.71159627 30.94173686 -19.12985968 34.03948628 -23.546875 37.140625 C-24.34641602 37.69862793 -25.14595703 38.25663086 -25.96972656 38.83154297 C-30.31831787 41.86786336 -34.64292062 44.93365668 -38.9453125 48.03515625 C-39.86159424 48.6904834 -40.77787598 49.34581055 -41.72192383 50.02099609 C-43.48825317 51.28501006 -45.2487856 52.55717416 -47.00268555 53.83837891 C-47.79199463 54.40089355 -48.58130371 54.9634082 -49.39453125 55.54296875 C-50.43685913 56.29694946 -50.43685913 56.29694946 -51.50024414 57.06616211 C-52.42051392 57.53614624 -52.42051392 57.53614624 -53.359375 58.015625 C-57.11313652 56.76437116 -57.60010789 55.4503846 -59.359375 52.015625 C-59.359375 51.355625 -59.359375 50.695625 -59.359375 50.015625 C-57.59375 48.58618164 -57.59375 48.58618164 -55.109375 46.92578125 C-54.19881348 46.31186523 -53.28825195 45.69794922 -52.35009766 45.06542969 C-51.36315918 44.40961914 -50.3762207 43.75380859 -49.359375 43.078125 C-47.32533698 41.7099087 -45.29148392 40.34141739 -43.2578125 38.97265625 C-42.25073242 38.29799316 -41.24365234 37.62333008 -40.20605469 36.92822266 C-36.44602606 34.40197358 -32.71203663 31.83929422 -28.984375 29.265625 C-24.97250682 26.49897958 -20.95654849 23.73906769 -16.92578125 21 C-16.19343262 20.50081055 -15.46108398 20.00162109 -14.70654297 19.48730469 C-13.30498939 18.53223291 -11.90176291 17.57960973 -10.49658203 16.62988281 C-7.53139067 14.60550377 -4.84094966 12.60687994 -2.359375 10.015625 C-14.35097141 0.75530326 -25.32064573 -2.72738775 -40.359375 -0.984375 C-50.10076388 1.16203272 -57.80352739 7.23284832 -63.234375 15.453125 C-67.69312735 22.67975018 -69.93103908 29.27710668 -69.859375 37.765625 C-69.85188232 38.94306274 -69.85188232 38.94306274 -69.84423828 40.14428711 C-69.63416305 47.21512971 -67.86353523 52.8464587 -64.359375 59.015625 C-63.89015625 59.84707031 -63.4209375 60.67851562 -62.9375 61.53515625 C-58.21182739 69.19531911 -52.55727302 74.45774635 -43.921875 77.32421875 C-39.1744922 78.24558581 -34.56218735 78.41349056 -29.734375 78.453125 C-28.85185059 78.46327637 -27.96932617 78.47342773 -27.06005859 78.48388672 C-17.93674206 78.36292398 -9.51534739 76.11746644 -2.87109375 69.54296875 C4.01644924 61.44521149 6.86186669 50.09517755 9.640625 40.015625 C11.950625 40.015625 14.260625 40.015625 16.640625 40.015625 C17.09441368 53.73012731 14.41682266 63.70686884 4.8984375 73.91015625 C-6.33993359 84.39022894 -19.8823286 86.82717266 -34.70703125 86.33203125 C-46.36702461 85.68566961 -57.85363871 80.33806601 -66.4453125 72.3828125 C-75.01990231 61.7783198 -80.80223579 46.66268327 -79.359375 33.015625 C-77.42934819 20.13269607 -72.61633225 9.32321382 -62.359375 1.015625 C-56.42304688 -3.20405896 -50.38057334 -6.08564627 -43.359375 -7.984375 C-42.74320313 -8.16742188 -42.12703125 -8.35046875 -41.4921875 -8.5390625 C-27.48990819 -11.46261532 -11.90169315 -7.47920608 0 0 Z " fill="#1F1C20" transform="translate(762.359375,149.984375)"/>
<path d="M0 0 C8.7444271 7.73749307 15.12673117 19.67989353 16.21704102 31.31640625 C17.00275894 47.29535965 14.54301072 60.52376487 4.1875 73.22265625 C-3.87847519 81.92285126 -14.87599873 86.35816873 -26.609375 87.28515625 C-39.74353826 87.59340702 -50.65114873 85.47398803 -60.625 76.6875 C-71.70376283 64.15100522 -76.73273802 51.334893 -76.28125 34.34765625 C-75.16109435 21.01469244 -68.82357039 9.03134697 -59 0 C-42.49091166 -13.14399542 -16.58585274 -12.46072641 0 0 Z M-58.26171875 10.703125 C-66.73478754 21.89900017 -69.2144668 33.4127922 -67.76171875 47.2734375 C-65.67443541 57.26709715 -60.09457451 66.80326534 -52 73 C-43.21599707 78.5485382 -33.38700981 81.24395327 -23 80 C-12.1339266 77.32900989 -4.60327852 72.04663336 1.45703125 62.671875 C7.99352849 51.35297851 8.64696818 39.23331537 6.375 26.49609375 C3.43663081 16.43480282 -2.63213373 7.51818555 -11.7265625 2.1484375 C-27.91337684 -6.02840686 -45.78176344 -2.2645527 -58.26171875 10.703125 Z " fill="#1E1B1F" transform="translate(1183,149)"/>
<path d="M0 0 C6.55738834 5.47165683 10.16059775 10.73156916 11.5703125 19.17578125 C11.65575208 21.38319274 11.68806172 23.59294161 11.68383789 25.80200195 C11.68398392 26.44646774 11.68412994 27.09093353 11.6842804 27.75492859 C11.68358756 29.87050829 11.67582481 31.98599831 11.66796875 34.1015625 C11.66610233 35.57415214 11.66467949 37.0467424 11.66368103 38.51933289 C11.65987346 42.38430513 11.65005829 46.24923945 11.63897705 50.11419678 C11.628725 54.06245409 11.62417529 58.01071757 11.61914062 61.95898438 C11.60843437 69.6979339 11.59137919 77.43685225 11.5703125 85.17578125 C9.2603125 85.17578125 6.9503125 85.17578125 4.5703125 85.17578125 C4.56888748 84.40871857 4.56746246 83.64165588 4.56599426 82.85134888 C4.54808499 75.58434973 4.50623941 68.31805205 4.43822193 61.05136299 C4.40408691 57.31638861 4.37886323 53.58181737 4.37475586 49.84667969 C4.37044353 46.23472932 4.3417426 42.62368627 4.29688072 39.01202011 C4.28399839 37.64154238 4.27956484 36.27095554 4.28415871 34.90042496 C4.31000974 24.83630366 2.91463929 17.40925213 -3.60546875 9.5546875 C-12.17542495 2.26944137 -18.36811083 0.50576011 -29.734375 0.765625 C-37.68775791 1.64840006 -43.29590551 5.48957157 -48.859375 11.0390625 C-54.8209093 19.15090146 -55.03312434 26.13185871 -55.0390625 35.95703125 C-55.05406492 37.38051211 -55.07079636 38.80397569 -55.08917236 40.22741699 C-55.13262774 43.94930884 -55.15279594 47.67096598 -55.16790771 51.39306641 C-55.18755821 55.20098627 -55.22951888 59.00865554 -55.26953125 62.81640625 C-55.34459648 70.26946352 -55.39503048 77.72241482 -55.4296875 85.17578125 C-58.0696875 85.17578125 -60.7096875 85.17578125 -63.4296875 85.17578125 C-63.54603296 76.61286057 -63.63462927 68.05027542 -63.68874836 59.48675728 C-63.71473568 55.50944024 -63.74993116 51.53266777 -63.80688477 47.55566406 C-63.8615977 43.71063841 -63.89118955 39.86613332 -63.90407372 36.02074814 C-63.91324386 34.56081839 -63.93114977 33.10091402 -63.95833778 31.64120865 C-64.16450197 20.10339396 -62.11400717 11.43902429 -54.16015625 2.76953125 C-38.38043925 -11.76348124 -16.9905402 -12.75656314 0 0 Z " fill="#1F1D20" transform="translate(885.4296875,148.82421875)"/>
<path d="M0 0 C2.64 0 5.28 0 8 0 C8 8.58 8 17.16 8 26 C19.22 26 30.44 26 42 26 C42 28.31 42 30.62 42 33 C31.11 33 20.22 33 9 33 C9.09080869 44.43085354 9.09080869 44.43085354 9.20898438 55.86132812 C9.2632707 60.5247898 9.31438196 65.18813225 9.34643555 69.85180664 C9.37248524 73.61268221 9.4128988 77.3731565 9.46318626 81.13378334 C9.47984384 82.56700961 9.49136505 84.00030528 9.49761391 85.43361473 C9.50726611 87.44438081 9.53703652 89.45501962 9.56762695 91.46557617 C9.57873001 92.60919113 9.58983307 93.75280609 9.60127258 94.93107605 C10.14943005 99.15013274 11.61094462 101.89099611 14.9375 104.546875 C15.618125 104.94390625 16.29875 105.3409375 17 105.75 C17.680625 106.15734375 18.36125 106.5646875 19.0625 106.984375 C22.14550942 108.60046865 24.80498414 109.14634673 28.23046875 109.31640625 C29.03291016 109.35830078 29.83535156 109.40019531 30.66210938 109.44335938 C31.49548828 109.48267578 32.32886719 109.52199219 33.1875 109.5625 C34.4549707 109.62727539 34.4549707 109.62727539 35.74804688 109.69335938 C37.83184433 109.79931518 39.91590103 109.9001502 42 110 C42 112.31 42 114.62 42 117 C38.04206705 117.14700894 34.08484908 117.2346378 30.125 117.3125 C29.01640625 117.35439453 27.9078125 117.39628906 26.765625 117.43945312 C18.44289305 117.56184624 11.80726157 116.10860622 5.35205078 110.59155273 C-0.33145133 104.4267284 -0.28994667 96.99461312 -0.22705078 89.11743164 C-0.22748886 87.66749313 -0.22748886 87.66749313 -0.22793579 86.18826294 C-0.22654906 83.01213417 -0.21101876 79.83624374 -0.1953125 76.66015625 C-0.19158004 74.45055774 -0.18873417 72.24095757 -0.18673706 70.03135681 C-0.179119 64.22976065 -0.15948616 58.42826541 -0.1373291 52.62670898 C-0.11683132 46.701023 -0.10772694 40.77532063 -0.09765625 34.84960938 C-0.07623857 23.2330287 -0.04212467 11.61652276 0 0 Z " fill="#1E1B1F" transform="translate(946,117)"/>
<path d="M0 0 C1.44149414 0.01353516 1.44149414 0.01353516 2.91210938 0.02734375 C5.25417805 0.05064792 7.59569792 0.08335942 9.9375 0.125 C9.9375 2.765 9.9375 5.405 9.9375 8.125 C9.38400879 8.13958252 8.83051758 8.15416504 8.26025391 8.16918945 C-7.03127257 8.61950184 -21.04163613 9.39225012 -32.8125 20.375 C-40.87149953 28.95755403 -43.61919063 38.65159742 -43.4375 50.234375 C-42.42428738 60.74645596 -36.86456654 69.82127047 -29.15234375 76.87109375 C-22.2566092 82.36848849 -14.21128991 86.27979994 -5.296875 86.22265625 C-4.40742187 86.21943359 -3.51796875 86.21621094 -2.6015625 86.21289062 C-1.68117188 86.20451172 -0.76078125 86.19613281 0.1875 86.1875 C1.12335937 86.18298828 2.05921875 86.17847656 3.0234375 86.17382812 C5.32819041 86.16206918 7.63281227 86.14563426 9.9375 86.125 C9.9375 88.765 9.9375 91.405 9.9375 94.125 C-10.03088659 94.69978298 -26.57447846 93.06673368 -41.828125 78.6875 C-52.40463995 66.55779055 -51.87023112 51.30137018 -51.0625 36.125 C-49.80024063 25.93065098 -45.502022 17.08457433 -37.37109375 10.6015625 C-34.2604992 8.61204517 -31.01402518 6.96510459 -27.6875 5.375 C-27.07527588 5.08093262 -26.46305176 4.78686523 -25.83227539 4.48388672 C-17.32188878 0.61664881 -9.27614936 -0.16783569 0 0 Z " fill="#201D21" transform="translate(636.0625,140.875)"/>
<path d="M0 0 C2.64 0 5.28 0 8 0 C8.33 4.95 8.66 9.9 9 15 C9.598125 14.13375 10.19625 13.2675 10.8125 12.375 C16.39995096 5.6953844 25.44500733 1.85407581 34 1 C37.67437909 0.86621246 41.32567848 0.87637797 45 1 C45 3.31 45 5.62 45 8 C44.17757813 8.08636719 43.35515625 8.17273438 42.5078125 8.26171875 C32.01815833 9.58201009 22.08760902 12.68603624 15 21 C10.58088974 28.0361418 8.92835972 34.44169756 8.79467773 42.72998047 C8.77473251 43.83066864 8.75478729 44.93135681 8.73423767 46.06539917 C8.71752518 47.23748932 8.70081268 48.40957947 8.68359375 49.6171875 C8.66281265 50.82948029 8.64203156 52.04177307 8.62062073 53.290802 C8.55539018 57.1521453 8.49636349 61.01355491 8.4375 64.875 C8.39428959 67.49740261 8.3506745 70.11979859 8.30664062 72.7421875 C8.19973596 79.16138882 8.0979209 85.58065569 8 92 C5.36 92 2.72 92 0 92 C0 61.64 0 31.28 0 0 Z " fill="#242125" transform="translate(1028,142)"/>
</svg>
